<?xml version="1.0" encoding="UTF-8" standalone="no"?>
<svg xmlns="http://www.w3.org/2000/svg" xmlns:xlink="http://www.w3.org/1999/xlink" width="6.000mm" height="3.214mm" viewBox="-92.820084 179.975632 6.000000 3.214096">
    <path style="stroke:none;fill:#007BFF;fill-rule:evenodd" d="M-90.26918,180.70665C-90.270096,180.703674,-90.280693,180.55484,-90.292725,180.3759C-90.304756,180.19696,-90.315605,180.042282,-90.316826,180.032166L-90.319046,180.013763L-90.29628,180.013763C-90.283752,180.013748,-90.25869,180.012115,-90.240585,180.010117C-90.222481,180.008118,-90.191841,180.005646,-90.172501,180.004608L-90.137344,180.002731L-90.128738,180.131226C-90.124008,180.201889,-90.119133,180.269699,-90.117897,180.281921L-90.115662,180.304123L-90.05497,180.20639C-90.021591,180.152634,-89.977379,180.08139,-89.956726,180.048065L-89.919182,179.987488L-89.883324,179.985062C-89.863602,179.983734,-89.824806,179.980759,-89.797112,179.978455C-89.769424,179.976166,-89.739342,179.974884,-89.73027,179.975632L-89.713783,179.976974L-89.825653,180.145996L-89.937531,180.315033L-89.796638,180.490601C-89.719147,180.587158,-89.655746,180.667526,-89.655746,180.669174C-89.655746,180.670837,-89.657356,180.672195,-89.659317,180.672195C-89.676155,180.672195,-89.856628,180.684464,-89.861404,180.685928C-89.865883,180.687317,-89.896164,180.651016,-89.971275,180.554199C-90.028305,180.480698,-90.076393,180.421448,-90.07814,180.422516C-90.079887,180.423599,-90.086746,180.433975,-90.093384,180.445587L-90.105461,180.466675L-90.097374,180.581726C-90.091408,180.66658,-90.090439,180.697479,-90.093674,180.699478C-90.099167,180.702866,-90.137032,180.7061,-90.21048,180.709442C-90.257515,180.711578,-90.267807,180.71109,-90.26918,180.70665z"/>
    <path style="stroke:none;fill:#007BFF;fill-rule:evenodd" d="M-89.190971,180.7686C-89.267868,180.753281,-89.31105,180.739975,-89.360039,180.716522C-89.393906,180.700302,-89.471527,180.651245,-89.480576,180.640335C-89.484718,180.635345,-89.482971,180.627808,-89.446373,180.493073C-89.44014,180.470108,-89.428429,180.473007,-89.40416,180.50351C-89.35006,180.571503,-89.267303,180.622406,-89.189331,180.635666C-89.152946,180.641846,-89.149734,180.641846,-89.129295,180.635406C-89.09346,180.624115,-89.075447,180.597748,-89.081604,180.565582C-89.085762,180.543793,-89.121902,180.514221,-89.183189,180.482422C-89.254944,180.44519,-89.27681,180.430908,-89.309555,180.399933C-89.365524,180.347,-89.382957,180.291809,-89.367203,180.217453C-89.349838,180.135468,-89.298691,180.084976,-89.207352,180.059616C-89.16906,180.048981,-89.099213,180.048294,-89.053474,180.058105C-88.98037,180.073776,-88.906212,180.104935,-88.843803,180.14621C-88.810745,180.16806,-88.807495,180.171295,-88.809486,180.180176C-88.810699,180.185577,-88.820007,180.220505,-88.830177,180.257782C-88.847977,180.323044,-88.849014,180.325516,-88.858116,180.324509C-88.863312,180.323944,-88.870895,180.31871,-88.874962,180.312897C-88.886063,180.297012,-88.932678,180.252243,-88.951851,180.239044C-89.003326,180.203629,-89.07032,180.181305,-89.113388,180.185211C-89.166359,180.190018,-89.195839,180.22757,-89.177078,180.266357C-89.168106,180.284912,-89.14418,180.302139,-89.078835,180.337082C-88.97522,180.392517,-88.924667,180.434921,-88.900993,180.486298C-88.888092,180.514282,-88.885109,180.566086,-88.894295,180.602661C-88.921547,180.711212,-89.010704,180.773865,-89.135971,180.772491C-89.156639,180.772263,-89.181389,180.770508,-89.190971,180.7686z"/>
    <path style="stroke:none;fill:#007BFF;fill-rule:evenodd" d="M-91.104111,180.90361C-91.134857,180.834915,-91.198944,180.691757,-91.246529,180.585495C-91.294121,180.479233,-91.332542,180.391785,-91.331917,180.391159C-91.330269,180.389511,-91.248558,180.352615,-91.135277,180.302368C-91.080956,180.278275,-91.021782,180.253952,-91.003784,180.248306C-90.923584,180.22316,-90.848717,180.234344,-90.799507,180.278824C-90.775833,180.300217,-90.757965,180.329971,-90.742996,180.372955C-90.732986,180.401703,-90.731194,180.412506,-90.731262,180.44368C-90.731339,180.474075,-90.733147,180.485123,-90.741638,180.507187C-90.753166,180.53714,-90.772163,180.572006,-90.780914,180.579269C-90.784096,180.581909,-90.786697,180.585449,-90.786697,180.587128C-90.786697,180.590454,-90.750763,180.609756,-90.581421,180.697388C-90.520706,180.72879,-90.466957,180.757034,-90.461975,180.760147C-90.4533,180.765549,-90.456924,180.767578,-90.547188,180.807983C-90.599037,180.831192,-90.645187,180.85022,-90.64975,180.850266C-90.654312,180.850327,-90.720131,180.816483,-90.796013,180.775055L-90.933975,180.699768L-90.960068,180.711792C-90.974419,180.718399,-90.986549,180.72406,-90.987015,180.72435C-90.987488,180.724655,-90.965302,180.775085,-90.937721,180.836411C-90.910133,180.897751,-90.887093,180.950424,-90.886513,180.953476C-90.885788,180.957291,-90.909706,180.96991,-90.96286,180.993774C-91.005432,181.012878,-91.042053,181.028519,-91.044235,181.028519C-91.046425,181.028519,-91.073364,180.972321,-91.104111,180.90361zM-90.99427,180.585632C-90.928116,180.554184,-90.903168,180.526901,-90.902977,180.485809C-90.902802,180.449066,-90.926598,180.406387,-90.953178,180.395752C-90.982254,180.384109,-91.00518,180.388504,-91.073784,180.418884C-91.095886,180.428665,-91.114441,180.437119,-91.115021,180.437668C-91.116417,180.439011,-91.04142,180.606354,-91.039421,180.606354C-91.038567,180.606354,-91.018242,180.597031,-90.99427,180.585632z"/>
    <path style="stroke:none;fill:#007BFF;fill-rule:evenodd" d="M-88.328873,181.18129C-88.367035,181.1548,-88.399017,181.132355,-88.399948,181.131424C-88.400887,181.130493,-88.36216,181.072723,-88.313889,181.003052C-88.265625,180.933365,-88.227539,180.875137,-88.229256,180.873642C-88.232262,180.871017,-88.36467,180.779251,-88.401207,180.754456L-88.418991,180.742401L-88.505783,180.867996C-88.55352,180.937073,-88.594093,180.993607,-88.59594,180.993622C-88.59967,180.993668,-88.741692,180.896652,-88.741692,180.894058C-88.741692,180.892731,-88.562958,180.634018,-88.382385,180.373978C-88.362411,180.345215,-88.344566,180.321136,-88.342712,180.320465C-88.340332,180.319611,-88.229614,180.393921,-88.196304,180.418747C-88.195633,180.41925,-88.226578,180.465042,-88.265076,180.520508C-88.303574,180.575974,-88.335899,180.623642,-88.336906,180.62645C-88.338058,180.629654,-88.30468,180.655014,-88.246178,180.695328C-88.195274,180.730423,-88.152,180.759674,-88.150009,180.76033C-88.148026,180.761002,-88.11441,180.715302,-88.075317,180.658768C-88.036224,180.602249,-88.002808,180.556,-88.00106,180.556C-87.996506,180.556,-87.856689,180.652924,-87.856689,180.656067C-87.856689,180.66153,-88.251923,181.229736,-88.255615,181.229599C-88.257751,181.229523,-88.29071,181.207779,-88.328873,181.18129z"/>
    <path style="stroke:none;fill:#007BFF;fill-rule:evenodd" d="M-91.754158,181.531448C-91.888771,181.512161,-92.043076,181.366882,-92.082649,181.222183C-92.093285,181.183273,-92.092499,181.109177,-92.081032,181.069366C-92.049042,180.958313,-91.935387,180.846329,-91.824692,180.816788C-91.785378,180.806305,-91.704155,180.807419,-91.663956,180.818985C-91.603546,180.836395,-91.54142,180.875549,-91.484215,180.932281C-91.430611,180.985458,-91.394707,181.040161,-91.374954,181.098755C-91.364899,181.128601,-91.362389,181.143066,-91.360794,181.18042C-91.358604,181.231888,-91.362877,181.260315,-91.379135,181.302338C-91.403221,181.364624,-91.466469,181.439941,-91.530434,181.482498C-91.598885,181.528046,-91.669739,181.543549,-91.754158,181.531448zM-91.605019,181.363525C-91.545914,181.336853,-91.511971,181.268951,-91.52636,181.206177C-91.548233,181.110733,-91.662498,180.996597,-91.760284,180.972504C-91.805176,180.961456,-91.846542,180.972488,-91.884094,181.005539C-91.904282,181.023315,-91.923706,181.059692,-91.92746,181.086777C-91.935303,181.143326,-91.900101,181.216187,-91.832245,181.283859C-91.751648,181.364258,-91.670021,181.392868,-91.605019,181.363525z"/>
    <path style="stroke:none;fill:#007BFF;fill-rule:evenodd" d="M-90.370827,181.625046C-90.382538,181.620316,-90.390862,181.606598,-90.416695,181.549454C-90.474388,181.421844,-90.474808,181.421082,-90.488495,181.41835C-90.495407,181.416962,-90.549316,181.415833,-90.608307,181.415833L-90.715553,181.415833L-90.723869,181.430634C-90.735786,181.451828,-90.771561,181.484283,-90.794991,181.495132C-90.860039,181.525269,-90.93119,181.512695,-90.977165,181.462952C-90.988503,181.450684,-91.003014,181.430267,-91.009399,181.417587C-91.019745,181.397064,-91.021019,181.390701,-91.021019,181.35968C-91.021019,181.328476,-91.019714,181.322067,-91.008591,181.298569C-90.99292,181.265488,-90.965279,181.238113,-90.930862,181.221588C-90.907669,181.210464,-90.901016,181.209076,-90.869965,181.208862C-90.80793,181.208435,-90.764534,181.22995,-90.732475,181.277023L-90.715042,181.302612L-90.575615,181.304077C-90.436188,181.305527,-90.43618,181.305542,-90.416817,181.31517C-90.398369,181.324356,-90.3964,181.32692,-90.375305,181.369354C-90.363121,181.39386,-90.334541,181.455734,-90.31179,181.506851C-90.28904,181.557983,-90.267876,181.603714,-90.264763,181.60849C-90.253143,181.626328,-90.259285,181.628876,-90.313087,181.628616C-90.340317,181.628479,-90.366295,181.626862,-90.370827,181.625046z"/>
    <path style="stroke:none;fill:#007BFF;fill-rule:evenodd" d="M-87.689041,181.814713C-87.786903,181.790314,-87.870369,181.715668,-87.921272,181.60704C-87.961113,181.522034,-87.962357,181.427811,-87.924713,181.347366C-87.880302,181.252457,-87.770462,181.160889,-87.653992,181.121689C-87.640503,181.117157,-87.61174,181.110748,-87.590088,181.107452C-87.543861,181.100433,-87.500732,181.104416,-87.451973,181.120224C-87.34948,181.153458,-87.251862,181.266296,-87.221748,181.386353C-87.207726,181.442276,-87.215767,181.522842,-87.240837,181.577591C-87.277092,181.656799,-87.35939,181.734268,-87.458282,181.782288C-87.516975,181.810791,-87.550575,181.819305,-87.610748,181.820877C-87.648811,181.821884,-87.665543,181.820572,-87.689041,181.814713zM-87.607124,181.645813C-87.521301,181.624573,-87.416893,181.542801,-87.382721,181.470062C-87.368477,181.439743,-87.366684,181.395477,-87.378441,181.364151C-87.39109,181.330444,-87.414368,181.304169,-87.445808,181.288101C-87.470551,181.275452,-87.474403,181.274643,-87.507584,181.27504C-87.550888,181.275543,-87.590546,181.287354,-87.635773,181.313187C-87.705246,181.35289,-87.755898,181.400772,-87.779976,181.449539C-87.793938,181.477798,-87.794716,181.481354,-87.794716,181.516357C-87.794716,181.549286,-87.793526,181.555664,-87.783806,181.574631C-87.750412,181.639832,-87.686684,181.665497,-87.607124,181.645813z"/>
    <path style="stroke:none;fill:#007BFF;fill-rule:evenodd" d="M-91.179817,182.039474C-91.240829,182.01506,-91.283562,181.954742,-91.284126,181.892227C-91.284538,181.846878,-91.272766,181.820145,-91.236206,181.783401C-91.198219,181.745209,-91.182449,181.739227,-91.119781,181.739273C-91.077911,181.739304,-91.073738,181.740036,-91.050072,181.751389C-91.022453,181.764633,-90.989449,181.794998,-90.973816,181.821548L-90.964127,181.837997L-90.801819,181.837997L-90.639519,181.837997L-90.639519,181.87619C-90.639519,181.897202,-90.640625,181.92247,-90.641983,181.932358L-90.644447,181.950317L-90.804367,181.950317L-90.964287,181.950317L-90.981079,181.974396C-91.000191,182.001801,-91.03743,182.0336,-91.057686,182.039841C-91.065216,182.04216,-91.091415,182.044769,-91.115913,182.045639C-91.153854,182.046982,-91.163322,182.046066,-91.179817,182.039474z"/>
    <path style="stroke:none;fill:#007BFF;fill-rule:evenodd" d="M-90.43026,182.097061C-90.443474,182.091797,-90.44574,182.086975,-90.445808,182.064041L-90.445862,182.044144L-90.473946,182.030762C-90.509743,182.013718,-90.522903,182.002441,-90.536835,181.976837C-90.552689,181.947708,-90.555206,181.902817,-90.542641,181.873596C-90.531776,181.848343,-90.494835,181.812912,-90.473343,181.807114C-90.454979,181.80217,-90.451126,181.79776,-90.447922,181.777969C-90.443199,181.748764,-90.442154,181.746368,-90.43222,181.741837C-90.426376,181.739182,-90.403076,181.737305,-90.37587,181.737305L-90.329475,181.737305L-90.325516,181.747726C-90.32296,181.75444,-90.32196,181.818039,-90.322708,181.926041C-90.3237,182.07019,-90.324684,182.094437,-90.329674,182.09758C-90.337296,182.102402,-90.417938,182.10199,-90.43026,182.097061z"/>
    <path style="stroke:none;fill:#007BFF;fill-rule:evenodd" d="M-88.590645,182.127808L-88.590645,181.999313L-88.701027,181.812332C-88.761742,181.709473,-88.811409,181.623474,-88.811409,181.621216C-88.811409,181.618393,-88.782516,181.617432,-88.719673,181.618134L-88.62793,181.619171L-88.567894,181.728592C-88.534874,181.788773,-88.506706,181.838013,-88.505295,181.838013C-88.503883,181.838013,-88.476761,181.788773,-88.445015,181.728592L-88.387306,181.619171L-88.297256,181.618134C-88.247726,181.617569,-88.207207,181.617935,-88.207207,181.618958C-88.207207,181.621033,-88.414284,181.971008,-88.422684,181.983139C-88.426903,181.989243,-88.427971,182.017624,-88.427971,182.123535L-88.427971,182.256302L-88.509308,182.256302L-88.590645,182.256302L-88.590645,182.127808z"/>
    <path style="stroke:none;fill:#007BFF;fill-rule:evenodd" d="M-89.308197,182.253403C-89.309006,182.251801,-89.309547,182.226959,-89.309387,182.198212L-89.309105,182.14592L-89.263596,182.144821L-89.218086,182.143738L-89.218086,181.936768L-89.218086,181.729797L-89.263596,181.728714L-89.309105,181.727615L-89.309105,181.673401L-89.309105,181.619171L-89.13578,181.618164L-88.962463,181.617157L-88.962463,181.673355L-88.962463,181.729553L-89.007004,181.729553L-89.051544,181.729553L-89.051544,181.936768L-89.051544,182.143982L-89.007004,182.143982L-88.962463,182.143982L-88.962463,182.200134L-88.962463,182.256302L-89.13459,182.256302C-89.229256,182.256302,-89.307381,182.25499,-89.308197,182.253403z"/>
    <path style="stroke:none;fill:#007BFF;fill-rule:evenodd" d="M-89.905563,182.262238C-89.96151,182.247894,-89.990219,182.234238,-90.052368,182.192383C-90.115425,182.149918,-90.14962,182.130615,-90.192177,182.113449L-90.219284,182.102524L-90.218651,182.052567C-90.218292,182.025085,-90.217857,181.94191,-90.217682,181.867706L-90.217354,181.732803L-90.20089,181.726425C-90.161942,181.711304,-90.114967,181.68573,-90.064362,181.6521C-90.005035,181.612671,-89.953232,181.586243,-89.917183,181.577011C-89.823479,181.552994,-89.732635,181.562454,-89.646065,181.605209C-89.560043,181.64769,-89.498184,181.720734,-89.463531,181.820694C-89.453461,181.849747,-89.45282,181.85553,-89.452698,181.919342L-89.452568,181.987122L-89.466812,182.025299C-89.487122,182.079727,-89.50985,182.117279,-89.545082,182.154602C-89.597618,182.210281,-89.660454,182.245728,-89.739082,182.264069C-89.786667,182.275162,-89.858246,182.274368,-89.905563,182.262238zM-89.721596,181.735367L-89.721596,181.698578L-89.795181,181.698578L-89.868774,181.698578L-89.868774,181.735367L-89.868774,181.772156L-89.795181,181.772156L-89.721596,181.772156L-89.721596,181.735367zM-90.027565,181.888351L-90.027565,181.698578L-90.062424,181.698578L-90.097282,181.698578L-90.097282,181.888351L-90.097282,182.07814L-90.062424,182.07814L-90.027565,182.07814L-90.027565,181.888351zM-89.566666,181.888351L-89.566666,181.698578L-89.603462,181.698578L-89.640259,181.698578L-89.640259,181.888351L-89.640259,182.07814L-89.603462,182.07814L-89.566666,182.07814L-89.566666,181.888351zM-89.873528,182.154633L-89.872482,182.07814L-89.797035,182.07814L-89.721596,182.07814L-89.721596,181.963882L-89.721596,181.849625L-89.795181,181.849625L-89.868774,181.849625L-89.868774,181.886276L-89.868774,181.922928L-89.831009,181.924042L-89.793243,181.925156L-89.792145,181.964844L-89.791039,182.004547L-89.868637,182.004547L-89.946236,182.004547L-89.946236,182.116226C-89.946236,182.177643,-89.945007,182.229126,-89.943512,182.230621C-89.942017,182.232117,-89.925896,182.232834,-89.907684,182.232239L-89.87458,182.231125L-89.873528,182.154633z"/>
    <path style="stroke:none;fill:#007BFF;fill-rule:evenodd" d="M-92.15197,182.548569C-92.177536,182.545853,-92.224594,182.540802,-92.256546,182.537354C-92.288498,182.53392,-92.338173,182.52858,-92.366928,182.525513C-92.395683,182.522461,-92.434898,182.518082,-92.454071,182.515793C-92.473244,182.513504,-92.512894,182.509094,-92.542183,182.505966C-92.57148,182.502853,-92.620277,182.497635,-92.650635,182.494385C-92.680992,182.491135,-92.728966,182.486145,-92.757248,182.483307C-92.785538,182.480469,-92.809792,182.47702,-92.811157,182.475662C-92.812523,182.474289,-92.799805,182.436142,-92.782898,182.390884C-92.754135,182.313873,-92.751503,182.308502,-92.74189,182.307388C-92.736244,182.306732,-92.704903,182.310547,-92.672249,182.315887C-92.639587,182.321213,-92.58847,182.329208,-92.558647,182.333633C-92.528824,182.338074,-92.494835,182.343353,-92.483124,182.345383C-92.471405,182.347397,-92.437416,182.352676,-92.407593,182.357101C-92.377769,182.361511,-92.338562,182.367523,-92.320465,182.370438C-92.302368,182.373352,-92.287102,182.37529,-92.286552,182.374741C-92.285995,182.374191,-92.372719,182.313995,-92.479263,182.240982C-92.585815,182.167969,-92.673676,182.107132,-92.674507,182.105774C-92.675339,182.104416,-92.662621,182.067581,-92.64624,182.023911L-92.616463,181.944504L-92.597237,181.944794C-92.586662,181.944946,-92.555351,181.947952,-92.527664,181.951462C-92.499969,181.954971,-92.454651,181.960617,-92.426956,181.964005C-92.399269,181.967392,-92.36528,181.971695,-92.351433,181.973557C-92.328728,181.976624,-92.30175,181.979965,-92.19651,181.992737C-92.178406,181.994934,-92.159386,181.99675,-92.154243,181.996765C-92.148262,181.99678,-92.215065,181.952087,-92.340157,181.87236C-92.44754,181.803909,-92.536781,181.746689,-92.53846,181.745178C-92.542084,181.741913,-92.481216,181.576385,-92.476608,181.576981C-92.47123,181.577667,-91.883232,181.983047,-91.883003,181.986237C-91.882706,181.990311,-91.945244,182.160767,-91.948204,182.16394C-91.950806,182.166733,-91.989197,182.1633,-92.237175,182.138077C-92.266998,182.13504,-92.3097,182.130722,-92.332069,182.128479C-92.354439,182.126236,-92.376221,182.123383,-92.380486,182.122147C-92.38739,182.120148,-92.387596,182.120544,-92.382416,182.125809C-92.379227,182.129059,-92.299919,182.184326,-92.206192,182.248627C-92.112465,182.312927,-92.033577,182.367615,-92.030884,182.370163C-92.023773,182.376907,-92.089813,182.554764,-92.099144,182.554016C-92.102638,182.553726,-92.126411,182.551285,-92.15197,182.548569z"/>
    <path style="stroke:none;fill:#007BFF;fill-rule:evenodd" d="M-87.128403,182.564102C-87.143234,182.558975,-87.167259,182.546646,-87.181786,182.536728C-87.243195,182.494766,-87.274879,182.442429,-87.301308,182.33931C-87.310005,182.305374,-87.317406,182.277313,-87.317749,182.276932C-87.318092,182.276566,-87.334915,182.280426,-87.355141,182.285492C-87.475342,182.315628,-87.534744,182.329453,-87.537277,182.327881C-87.540825,182.325684,-87.582123,182.160416,-87.579628,182.158386C-87.578636,182.157593,-87.527283,182.144516,-87.465508,182.129364C-87.403732,182.114197,-87.299156,182.088531,-87.233116,182.072311C-87.167084,182.056107,-87.067268,182.031494,-87.011299,182.017624C-86.955338,182.003754,-86.90667,181.99295,-86.903137,181.993637C-86.89814,181.994598,-86.890068,182.02179,-86.866554,182.116867C-86.824165,182.288239,-86.820068,182.309433,-86.820084,182.35701C-86.820129,182.467148,-86.873154,182.536438,-86.980072,182.566071C-87.022186,182.577744,-87.091675,182.576828,-87.128403,182.564102zM-87.029533,182.389496C-86.989899,182.377716,-86.96804,182.346741,-86.967896,182.302109C-86.967819,182.279099,-86.980309,182.210999,-86.986679,182.199707C-86.988358,182.196732,-87.018852,182.202759,-87.084679,182.219101C-87.137245,182.232147,-87.181396,182.243958,-87.182785,182.245346C-87.186104,182.248672,-87.166954,182.318787,-87.156876,182.34024C-87.145279,182.364914,-87.122299,182.386688,-87.100632,182.393509C-87.080498,182.399857,-87.060677,182.398743,-87.029533,182.389496z"/>
    <path style="stroke:none;fill:#007BFF;fill-rule:evenodd" d="M-90.936707,182.606812C-90.969139,182.590576,-90.996002,182.563431,-91.010574,182.532135C-91.01944,182.513092,-91.020889,182.504822,-91.02095,182.473129C-91.021019,182.439178,-91.020012,182.434204,-91.008255,182.410309C-90.991882,182.377029,-90.965805,182.351044,-90.933876,182.336182C-90.910561,182.325317,-90.905411,182.324448,-90.864159,182.324265C-90.822647,182.324097,-90.81813,182.324844,-90.797768,182.335159C-90.769356,182.349548,-90.740501,182.375031,-90.72467,182.399689L-90.712036,182.419388L-90.596565,182.418213C-90.518204,182.417404,-90.479713,182.415649,-90.476784,182.412704C-90.474403,182.410324,-90.451157,182.361526,-90.42511,182.30426L-90.377762,182.200134L-90.329086,182.199066C-90.302315,182.198471,-90.275864,182.199707,-90.270309,182.201828C-90.260429,182.205582,-90.260323,182.206009,-90.265526,182.220337C-90.268456,182.228394,-90.285095,182.266373,-90.302498,182.304718C-90.319901,182.343063,-90.345772,182.400543,-90.359985,182.432449C-90.388527,182.496521,-90.406647,182.520279,-90.43071,182.525162C-90.437981,182.526642,-90.50544,182.528824,-90.580612,182.529999L-90.7173,182.532166L-90.730164,182.552261C-90.745949,182.576935,-90.770706,182.598938,-90.796379,182.611115C-90.813423,182.619186,-90.821381,182.6203,-90.862671,182.620331C-90.908592,182.620377,-90.910179,182.620087,-90.936707,182.606812z"/>
    <path style="stroke:none;fill:#007BFF;fill-rule:evenodd" d="M-89.823586,182.830811C-89.825005,182.829391,-89.826164,182.809341,-89.826164,182.78627L-89.826164,182.744308L-88.327271,182.744308L-86.828384,182.744324L-86.828384,182.788864L-86.828384,182.833405L-88.324692,182.833389C-89.147659,182.833389,-89.822166,182.83223,-89.823586,182.830811z"/>
    <path style="stroke:none;fill:#007BFF;fill-rule:evenodd" d="M-90.825432,182.968948L-90.825432,182.926346L-88.826904,182.926346L-86.828384,182.926346L-86.828384,182.968964L-86.828384,183.011566L-88.826904,183.011551L-90.825432,183.011551L-90.825432,182.968948z"/>
    <path style="stroke:none;fill:#007BFF;fill-rule:evenodd" d="M-92.820084,183.14711L-92.820084,183.104507L-89.824234,183.104507L-86.828384,183.104523L-86.828384,183.147125L-86.828384,183.189728L-89.824234,183.189713L-92.820084,183.189713L-92.820084,183.14711z"/>
</svg>
