<?xml version="1.0" encoding="UTF-8"?>
<svg xmlns="http://www.w3.org/2000/svg" 
     viewBox="-91.513534 180.769425 2.289962 2.289962"
     role="img" aria-label="Workshop DIY">
  <title>Workshop DIY</title>
  <rect x="-91.513534" y="180.769425" width="2.289962" height="2.289962" fill="#007BFF" rx="0.274795"/>
  <g fill="#FFFFFF" fill-rule="evenodd">
    <path d="M-90.370827,181.625046C-90.382538,181.620316,-90.390862,181.606598,-90.416695,181.549454C-90.474388,181.421844,-90.474808,181.421082,-90.488495,181.41835C-90.495407,181.416962,-90.549316,181.415833,-90.608307,181.415833L-90.715553,181.415833L-90.723869,181.430634C-90.735786,181.451828,-90.771561,181.484283,-90.794991,181.495132C-90.860039,181.525269,-90.93119,181.512695,-90.977165,181.462952C-90.988503,181.450684,-91.003014,181.430267,-91.009399,181.417587C-91.019745,181.397064,-91.021019,181.390701,-91.021019,181.35968C-91.021019,181.328476,-91.019714,181.322067,-91.008591,181.298569C-90.99292,181.265488,-90.965279,181.238113,-90.930862,181.221588C-90.907669,181.210464,-90.901016,181.209076,-90.869965,181.208862C-90.80793,181.208435,-90.764534,181.22995,-90.732475,181.277023L-90.715042,181.302612L-90.575615,181.304077C-90.436188,181.305527,-90.43618,181.305542,-90.416817,181.31517C-90.398369,181.324356,-90.3964,181.32692,-90.375305,181.369354C-90.363121,181.39386,-90.334541,181.455734,-90.31179,181.506851C-90.28904,181.557983,-90.267876,181.603714,-90.264763,181.60849C-90.253143,181.626328,-90.259285,181.628876,-90.313087,181.628616C-90.340317,181.628479,-90.366295,181.626862,-90.370827,181.625046z"/>
    <path d="M-91.179817,182.039474C-91.240829,182.01506,-91.283562,181.954742,-91.284126,181.892227C-91.284538,181.846878,-91.272766,181.820145,-91.236206,181.783401C-91.198219,181.745209,-91.182449,181.739227,-91.119781,181.739273C-91.077911,181.739304,-91.073738,181.740036,-91.050072,181.751389C-91.022453,181.764633,-90.989449,181.794998,-90.973816,181.821548L-90.964127,181.837997L-90.801819,181.837997L-90.639519,181.837997L-90.639519,181.87619C-90.639519,181.897202,-90.640625,181.92247,-90.641983,181.932358L-90.644447,181.950317L-90.804367,181.950317L-90.964287,181.950317L-90.981079,181.974396C-91.000191,182.001801,-91.03743,182.0336,-91.057686,182.039841C-91.065216,182.04216,-91.091415,182.044769,-91.115913,182.045639C-91.153854,182.046982,-91.163322,182.046066,-91.179817,182.039474z"/>
    <path d="M-90.43026,182.097061C-90.443474,182.091797,-90.44574,182.086975,-90.445808,182.064041L-90.445862,182.044144L-90.473946,182.030762C-90.509743,182.013718,-90.522903,182.002441,-90.536835,181.976837C-90.552689,181.947708,-90.555206,181.902817,-90.542641,181.873596C-90.531776,181.848343,-90.494835,181.812912,-90.473343,181.807114C-90.454979,181.80217,-90.451126,181.79776,-90.447922,181.777969C-90.443199,181.748764,-90.442154,181.746368,-90.43222,181.741837C-90.426376,181.739182,-90.403076,181.737305,-90.37587,181.737305L-90.329475,181.737305L-90.325516,181.747726C-90.32296,181.75444,-90.32196,181.818039,-90.322708,181.926041C-90.3237,182.07019,-90.324684,182.094437,-90.329674,182.09758C-90.337296,182.102402,-90.417938,182.10199,-90.43026,182.097061z"/>
    <path d="M-89.905563,182.262238C-89.96151,182.247894,-89.990219,182.234238,-90.052368,182.192383C-90.115425,182.149918,-90.14962,182.130615,-90.192177,182.113449L-90.219284,182.102524L-90.218651,182.052567C-90.218292,182.025085,-90.217857,181.94191,-90.217682,181.867706L-90.217354,181.732803L-90.20089,181.726425C-90.161942,181.711304,-90.114967,181.68573,-90.064362,181.6521C-90.005035,181.612671,-89.953232,181.586243,-89.917183,181.577011C-89.823479,181.552994,-89.732635,181.562454,-89.646065,181.605209C-89.560043,181.64769,-89.498184,181.720734,-89.463531,181.820694C-89.453461,181.849747,-89.45282,181.85553,-89.452698,181.919342L-89.452568,181.987122L-89.466812,182.025299C-89.487122,182.079727,-89.50985,182.117279,-89.545082,182.154602C-89.597618,182.210281,-89.660454,182.245728,-89.739082,182.264069C-89.786667,182.275162,-89.858246,182.274368,-89.905563,182.262238zM-89.721596,181.735367L-89.721596,181.698578L-89.795181,181.698578L-89.868774,181.698578L-89.868774,181.735367L-89.868774,181.772156L-89.795181,181.772156L-89.721596,181.772156L-89.721596,181.735367zM-90.027565,181.888351L-90.027565,181.698578L-90.062424,181.698578L-90.097282,181.698578L-90.097282,181.888351L-90.097282,182.07814L-90.062424,182.07814L-90.027565,182.07814L-90.027565,181.888351zM-89.566666,181.888351L-89.566666,181.698578L-89.603462,181.698578L-89.640259,181.698578L-89.640259,181.888351L-89.640259,182.07814L-89.603462,182.07814L-89.566666,182.07814L-89.566666,181.888351zM-89.873528,182.154633L-89.872482,182.07814L-89.797035,182.07814L-89.721596,182.07814L-89.721596,181.963882L-89.721596,181.849625L-89.795181,181.849625L-89.868774,181.849625L-89.868774,181.886276L-89.868774,181.922928L-89.831009,181.924042L-89.793243,181.925156L-89.792145,181.964844L-89.791039,182.004547L-89.868637,182.004547L-89.946236,182.004547L-89.946236,182.116226C-89.946236,182.177643,-89.945007,182.229126,-89.943512,182.230621C-89.942017,182.232117,-89.925896,182.232834,-89.907684,182.232239L-89.87458,182.231125L-89.873528,182.154633z"/>
    <path d="M-90.936707,182.606812C-90.969139,182.590576,-90.996002,182.563431,-91.010574,182.532135C-91.01944,182.513092,-91.020889,182.504822,-91.02095,182.473129C-91.021019,182.439178,-91.020012,182.434204,-91.008255,182.410309C-90.991882,182.377029,-90.965805,182.351044,-90.933876,182.336182C-90.910561,182.325317,-90.905411,182.324448,-90.864159,182.324265C-90.822647,182.324097,-90.81813,182.324844,-90.797768,182.335159C-90.769356,182.349548,-90.740501,182.375031,-90.72467,182.399689L-90.712036,182.419388L-90.596565,182.418213C-90.518204,182.417404,-90.479713,182.415649,-90.476784,182.412704C-90.474403,182.410324,-90.451157,182.361526,-90.42511,182.30426L-90.377762,182.200134L-90.329086,182.199066C-90.302315,182.198471,-90.275864,182.199707,-90.270309,182.201828C-90.260429,182.205582,-90.260323,182.206009,-90.265526,182.220337C-90.268456,182.228394,-90.285095,182.266373,-90.302498,182.304718C-90.319901,182.343063,-90.345772,182.400543,-90.359985,182.432449C-90.388527,182.496521,-90.406647,182.520279,-90.43071,182.525162C-90.437981,182.526642,-90.50544,182.528824,-90.580612,182.529999L-90.7173,182.532166L-90.730164,182.552261C-90.745949,182.576935,-90.770706,182.598938,-90.796379,182.611115C-90.813423,182.619186,-90.821381,182.6203,-90.862671,182.620331C-90.908592,182.620377,-90.910179,182.620087,-90.936707,182.606812z"/>
  </g>
</svg>